<?xml version="1.0" standalone="no"?>
<!DOCTYPE svg PUBLIC "-//W3C//DTD SVG 20010904//EN"
 "http://www.w3.org/TR/2001/REC-SVG-20010904/DTD/svg10.dtd">
<svg version="1.0" xmlns="http://www.w3.org/2000/svg"
 width="873.000000pt" height="873.000000pt" viewBox="0 0 873.000000 873.000000"
 preserveAspectRatio="xMidYMid meet">
<metadata>
Created by potrace 1.11, written by Peter Selinger 2001-2013
</metadata>
<g transform="translate(0.000000,873.000000) scale(0.100000,-0.100000)"
fill="#000000" stroke="none">
<path d="M4166 8719 c-328 -35 -700 -183 -986 -392 -188 -138 -420 -360 -566
-542 -72 -89 -210 -279 -241 -330 -6 -11 -34 -56 -61 -100 -27 -44 -60 -100
-73 -125 -13 -25 -26 -47 -29 -50 -25 -23 -210 -431 -282 -620 -78 -206 -203
-630 -233 -790 -3 -14 -7 -38 -10 -55 -3 -16 -8 -37 -10 -45 -2 -8 -7 -31 -10
-50 -3 -19 -8 -46 -10 -60 -12 -59 -16 -80 -30 -166 -8 -50 -17 -115 -20 -145
-3 -30 -7 -63 -9 -74 -2 -11 -7 -49 -11 -85 -3 -36 -8 -81 -10 -100 -4 -37
-14 -183 -21 -290 -5 -92 -5 -547 0 -655 5 -108 21 -313 31 -395 21 -180 28
-237 41 -315 8 -49 17 -103 20 -120 2 -16 7 -41 9 -55 3 -14 7 -34 9 -45 16
-80 57 -269 61 -275 2 -4 7 -22 10 -41 3 -19 18 -74 31 -124 14 -49 26 -94 27
-99 2 -6 105 -316 130 -391 51 -147 208 -491 297 -650 377 -675 855 -1147
1390 -1373 308 -130 595 -176 930 -149 384 31 809 218 1154 507 286 240 582
602 769 940 14 25 39 70 56 100 64 112 179 360 253 545 112 280 247 755 293
1035 3 19 10 53 15 75 4 22 11 63 15 90 3 28 8 57 10 65 2 8 6 38 10 65 3 28
8 61 10 75 6 40 14 110 20 180 3 36 8 88 10 115 14 131 20 324 19 585 -1 336
-9 482 -38 735 -2 17 -7 57 -11 90 -3 33 -10 85 -15 115 -5 30 -12 73 -15 95
-3 23 -7 52 -10 65 -4 23 -16 85 -31 165 -20 113 -98 429 -129 525 -8 25 -24
77 -36 115 -65 212 -176 489 -280 700 -105 214 -161 312 -285 500 -231 349
-517 649 -817 859 -52 36 -98 66 -101 66 -3 0 -29 15 -58 34 -92 58 -306 154
-413 185 -102 30 -139 39 -275 66 -90 18 -378 26 -494 14z"/>
</g>
</svg>
